<?xml version="1.0" standalone="no"?>
<!DOCTYPE svg PUBLIC "-//W3C//DTD SVG 20010904//EN"
 "http://www.w3.org/TR/2001/REC-SVG-20010904/DTD/svg10.dtd">
<svg version="1.0" xmlns="http://www.w3.org/2000/svg"
 width="230.000000pt" height="230.000000pt" viewBox="0 0 230.000000 230.000000"
 preserveAspectRatio="xMidYMid meet">

<g transform="translate(0.000000,230.000000) scale(0.100000,-0.100000)"
fill="#000000" stroke="none">
<path d="M0 1150 l0 -1150 1150 0 1150 0 0 1150 0 1150 -1150 0 -1150 0 0
-1150z m1113 289 c222 -75 307 -119 307 -159 0 -11 -26 -37 -67 -66 -38 -27
-116 -90 -174 -140 -108 -93 -183 -144 -212 -144 -27 0 -35 60 -42 300 -4 124
-9 233 -11 243 -9 29 35 21 199 -34z m62 -535 c45 -18 60 -135 26 -202 -21
-41 -153 -172 -174 -172 -9 0 -11 -37 -9 -155 3 -151 3 -155 -17 -155 -20 0
-21 6 -22 118 0 64 -2 144 -4 177 -2 33 -6 117 -10 186 l-7 126 36 29 c53 43
137 65 181 48z m720 -229 l7 -84 47 -3 c38 -3 46 -6 46 -23 0 -16 -8 -21 -41
-23 l-42 -3 10 -40 c11 -42 22 -47 52 -24 11 8 30 15 43 15 18 0 23 -6 23 -24
0 -30 -57 -66 -105 -66 -41 0 -60 24 -70 86 l-6 41 -50 -10 c-27 -5 -52 -8
-55 -5 -13 14 13 39 55 53 l47 15 -2 73 c-3 139 30 157 41 22z m393 21 c2 -9
-26 -83 -62 -164 -36 -81 -85 -196 -108 -256 -44 -111 -67 -141 -90 -118 -13
13 -7 37 55 196 l34 89 -30 48 c-41 67 -68 150 -54 168 9 11 14 9 29 -10 10
-13 22 -29 27 -35 5 -6 19 -30 30 -53 12 -22 25 -41 30 -41 5 0 23 33 41 72
52 116 88 155 98 104z m-720 -119 c4 -32 7 -33 39 -7 31 24 93 27 93 5 0 -8
-18 -22 -41 -31 -48 -20 -59 -43 -59 -125 0 -64 -17 -86 -45 -58 -15 15 -32
205 -21 234 9 24 30 13 34 -18z m-208 -17 c11 -11 20 -27 20 -36 0 -9 30 -47
66 -85 69 -71 78 -99 30 -99 -25 0 -67 34 -103 85 l-22 30 -10 -27 c-23 -60
-61 -108 -85 -108 -59 0 -83 88 -47 173 34 79 107 111 151 67z"/>
<path d="M1099 860 c-20 -3 -51 -15 -69 -26 l-33 -19 2 -85 c2 -47 6 -102 9
-123 l7 -37 64 62 c74 73 106 134 96 184 -7 41 -28 53 -76 44z"/>
<path d="M1280 520 c-11 -11 -20 -23 -20 -27 0 -5 -4 -24 -9 -44 -15 -66 5
-65 38 2 17 34 31 68 31 76 0 19 -17 16 -40 -7z"/>
</g>
</svg>
